<svg id="Capa_1" enable-background="new 0 0 512 512" height="512" viewBox="0 0 512 512" width="512" xmlns="http://www.w3.org/2000/svg"><g><circle cx="256" cy="256" fill="#fb72a4" r="256"/><path d="m293.002 79.541-14.672 14.672-22.353-22.353-44.941 44.941 22.353 22.353-24.387 24.387 75.604 75.604-158.606 158.605 113.72 113.72c5.385.338 10.81.53 16.28.53 127.95 0 233.97-93.869 252.965-216.497z" fill="#fb448b"/><path d="m228.5 116.75c0-15.164 12.336-27.5 27.5-27.5l8.529-11.735-8.529-13.265c-28.949 0-52.5 23.551-52.5 52.5s23.551 52.5 52.5 52.5l8.529-11.971-8.529-13.029c-15.164 0-27.5-12.336-27.5-27.5z" fill="#fa0"/><path d="m308.5 116.75c0-28.949-23.551-52.5-52.5-52.5v25c15.164 0 27.5 12.336 27.5 27.5s-12.336 27.5-27.5 27.5v25c28.949 0 52.5-23.551 52.5-52.5z" fill="#ff9500"/><path d="m206 397.75c0 27.614 22.386 50 50 50l26.25-51.176-26.25-48.824c-27.614 0-50 22.386-50 50z" fill="#fcc515"/><path d="m306 397.75c0-27.614-22.386-50-50-50v100c27.614 0 50-22.386 50-50z" fill="#fa0"/><path d="m256 127.75c-60.751 0-110 49.249-110 110v80l-20 40 130 20 37.941-115z" fill="#fcc515"/><path d="m366 317.75v-80c0-60.751-49.249-110-110-110v250l130-20z" fill="#fa0"/><path d="m126 357.75v40h130l14.294-20-14.294-20z" fill="#fa0"/><path d="m256 357.75h130v40h-130z" fill="#ff9500"/></g></svg>