<svg height="512pt" viewBox="0 0 512 512" width="512pt" xmlns="http://www.w3.org/2000/svg"><path d="m512 256c0 141.386719-114.613281 256-256 256s-256-114.613281-256-256 114.613281-256 256-256 256 114.613281 256 256zm0 0" fill="#b35f49"/><path d="m331.105469 86.019531-2.363281 72.683594-72.722657-72.722656-2.363281 72.761719-72.71875-72.722657-1.609375 49.582031-17.996094 17.996094 16.863281 16.863282-.027343.875 19.832031 182.664062-102.039062 52.207031 98.269531 98.273438c19.785156 4.902343 40.46875 7.519531 61.769531 7.519531 137.804688 0 250.160156-108.890625 255.761719-245.320312zm0 0" fill="#99503d"/><path d="m115.238281 321.109375h281.523438v75.699219h-281.523438zm0 0" fill="#e63950"/><path d="m256 321.109375h140.761719v75.699219h-140.761719zm0 0" fill="#ae2538"/><path d="m302.921875 161.578125h56.304687v75.074219h-56.304687zm0 0" fill="#d8d8fc"/><path d="m152.773438 161.578125h56.304687v75.074219h-56.304687zm0 0" fill="#f2f2fc"/><path d="m227.847656 161.578125h56.304688v75.074219h-56.304688zm0 0" fill="#f2f2fc"/><path d="m256 161.578125h28.152344v75.074219h-28.152344zm0 0" fill="#d8d8fc"/><path d="m338.203125 94.636719-7.128906-8.632813-7.132813 8.632813c-6.382812 7.507812-21.019531 26.402343-21.019531 38.789062 0 15.578125 12.574219 28.152344 28.152344 28.152344s28.152343-12.574219 28.152343-28.152344c0-12.386719-14.640624-31.28125-21.023437-38.789062zm0 0" fill="#fdbf00"/><path d="m134.007812 217.882812h243.984376v93.84375h-243.984376zm0 0" fill="#ff637b"/><path d="m263.132812 94.636719-7.132812-8.632813-7.132812 8.636719c-6.378907 7.507813-21.019532 26.398437-21.019532 38.785156 0 15.578125 12.574219 28.152344 28.152344 28.152344s28.152344-12.574219 28.152344-28.152344c0-12.386719-14.640625-31.28125-21.019532-38.789062zm0 0" fill="#ffda2d"/><path d="m180.925781 161.578125c-15.523437 0-28.152343-12.628906-28.152343-28.152344 0-12.425781 14.65625-31.25 20.949218-38.792969l7.203125-8.632812 7.203125 8.632812c6.296875 7.542969 20.949219 26.367188 20.949219 38.792969 0 15.523438-12.628906 28.152344-28.152344 28.152344zm0 0" fill="#ffda2d"/><path d="m256 161.578125v-75.574219l7.132812 8.636719c6.378907 7.507813 21.019532 26.398437 21.019532 38.785156 0 15.578125-12.574219 28.152344-28.152344 28.152344zm0 0" fill="#fdbf00"/><path d="m256 217.882812h121.992188v93.84375h-121.992188zm0 0" fill="#e63950"/><path d="m95.84375 387.425781h320.3125v18.765625h-320.3125zm0 0" fill="#ffda2d"/><path d="m321.6875 246.035156h18.769531v18.769532h-18.769531zm0 0" fill="#ff9ef3"/><path d="m284.152344 246.035156h18.769531v18.769532h-18.769531zm0 0" fill="#ff9ef3"/><g fill="#fbf"><path d="m246.617188 246.035156h18.765624v18.769532h-18.765624zm0 0"/><path d="m209.078125 246.035156h18.769531v18.769532h-18.769531zm0 0"/><path d="m171.542969 246.035156h18.769531v18.769532h-18.769531zm0 0"/></g><path d="m256 387.425781h160.15625v18.765625h-160.15625zm0 0" fill="#fdbf00"/><path d="m256 246.035156h9.382812v18.769532h-9.382812zm0 0" fill="#ff9ef3"/><path d="m396.761719 292.957031v28.152344c0 15.578125-12.574219 28.152344-28.152344 28.152344-7.320313 0-13.886719-2.816407-18.765625-7.320313-4.882812 4.503906-11.449219 7.320313-18.769531 7.320313-7.320313 0-13.886719-2.816407-18.769531-7.320313-4.878907 4.503906-11.445313 7.320313-18.765626 7.320313-7.320312 0-13.890624-2.816407-18.769531-7.320313-4.878906 4.503906-11.449219 7.320313-18.765625 7.320313-7.320312 0-13.890625-2.816407-18.769531-7.320313-4.878906 4.503906-11.449219 7.320313-18.769531 7.320313-7.320313 0-13.886719-2.816407-18.765625-7.320313-4.882813 4.503906-11.449219 7.320313-18.769531 7.320313-7.320313 0-13.886719-2.816407-18.769532-7.320313-4.878906 4.503906-11.445312 7.320313-18.765625 7.320313-15.578125 0-28.152343-12.574219-28.152343-28.152344v-28.152344zm0 0" fill="#fbf"/><path d="m396.761719 292.957031v28.152344c0 15.578125-12.574219 28.152344-28.152344 28.152344-7.320313 0-13.886719-2.816407-18.765625-7.320313-4.882812 4.503906-11.449219 7.320313-18.769531 7.320313-7.320313 0-13.886719-2.816407-18.769531-7.320313-4.878907 4.503906-11.445313 7.320313-18.765626 7.320313-7.320312 0-13.890624-2.816407-18.769531-7.320313-4.878906 4.503906-11.449219 7.320313-18.765625 7.320313v-56.304688zm0 0" fill="#ff9ef3"/></svg>