<svg id="Capa_1" enable-background="new 0 0 512 512" height="512" viewBox="0 0 512 512" width="512" xmlns="http://www.w3.org/2000/svg"><g><circle cx="256" cy="256" fill="#ffd300" r="256"/><g><path d="m512 256c0-8.786-.444-17.468-1.309-26.026l-116.411-116.411-2.007 3.225-29.994-29.994-18.879 49.997h-119.018l-49.996-49.996-56.666 344.098 72.583 72.583c20.967 5.551 42.984 8.524 65.697 8.524 141.385 0 256-114.615 256-256z" fill="#ff9e00"/></g><g><g><g><g><path d="m178.281 124.381h-32.455v-27.046c0-8.962 7.265-16.227 16.227-16.227 8.962 0 16.227 7.265 16.227 16.227v27.046z" fill="#5a5a5a"/><path d="m366.174 124.381h-32.455v-27.046c0-8.962 7.265-16.227 16.228-16.227 8.962 0 16.227 7.265 16.227 16.227z" fill="#32393f"/></g><g><path d="m117.72 430.893h138.28l10.818-9.058-10.818-23.369-138.28 10.79z" fill="#9f9fa5"/><path d="m394.28 430.893v-21.637l-137.912-10.818-.368.028v32.427z" fill="#7c8186"/><path d="m117.72 113.562v64.91l137.579 21.637.701-.109 10.818-48.509-10.818-37.929z" fill="#ff641a"/><path d="m117.72 409.293h138.28l10.818-9.058-10.818-23.369-138.28 10.79z" fill="#dddde1"/><path d="m394.28 113.562h-138.28v86.438l138.28-21.528z" fill="#ef3800"/><path d="m394.28 409.293v-21.637l-137.912-10.818-.368.028v32.427z" fill="#b8b8be"/></g><g><path d="m117.72 178.472v209.184h138.28l10.818-99.854-10.818-109.33z" fill="#fff"/><path d="m256 178.472h138.28v209.183h-138.28z" fill="#e3eaee"/></g><path d="m149.439 210.56h49.894v49.894h-49.894z" fill="#a7eaf9"/><path d="m149.439 305.674h49.894v49.894h-49.894z" fill="#a7eaf9"/><g><path d="m231.053 355.569h24.947l10.818-24.947-10.818-24.948h-24.947z" fill="#a7eaf9"/><path d="m231.053 210.56v49.894h24.947l10.818-24.947-10.818-24.947z" fill="#a7eaf9"/><g fill="#2ad7f5"><path d="m256 210.56h24.947v49.894h-24.947z"/><path d="m256 305.674h24.947v49.894h-24.947z"/></g></g><path d="m313.099 210.56h49.894v49.894h-49.894z" fill="#2ad7f5"/></g></g></g></g></svg>