<svg id="Layer_1" enable-background="new 0 0 512 512" height="512" viewBox="0 0 512 512" width="512" xmlns="http://www.w3.org/2000/svg"><g><g><g><g><g><g id="XMLID_1464_"><g id="XMLID_1465_"><g id="XMLID_1466_"><g id="XMLID_1467_"><g id="XMLID_1468_"><g id="XMLID_1469_"><g id="XMLID_1470_"><g id="XMLID_1471_"><g id="XMLID_1472_"><g id="XMLID_1473_"><g id="XMLID_1474_"><g id="XMLID_1475_"><g id="XMLID_1476_"><g id="XMLID_1781_"><g id="XMLID_1785_"><circle cx="256" cy="256" fill="#ffe705" r="256"/></g></g></g></g></g></g></g></g></g></g></g></g></g></g></g></g></g></g></g><path d="m512 256c0-15.752-1.423-31.171-4.147-46.137l-52.959-52.959-198.894 85.923-134.082 178.79 85.845 85.845c15.622 2.979 31.747 4.538 48.237 4.538 141.385 0 256-114.615 256-256z" fill="#f4c01c"/><g><path d="m183.994 328.004-39.992-23.84-53.624 85.915 31.541 31.541 85.915-53.624z" fill="#00cb75"/><path d="m217.007 58.366h141.13v332.12h-141.13z" fill="#ace233" transform="matrix(.707 .707 -.707 .707 242.921 -137.611)"/><path d="m217.007 107.24h141.13v234.372h-141.13z" fill="#4f4f51" transform="matrix(.707 .707 -.707 .707 242.921 -137.611)"/><path d="m239.054 279.651-6.707-6.707c-12.075-12.075-12.075-31.833 0-43.908l59.835-59.835c12.075-12.075 31.833-12.075 43.908 0l6.707 6.707c12.075 12.075 12.075 31.833 0 43.908l-59.835 59.835c-12.075 12.075-31.833 12.075-43.908 0z" fill="#ace233"/><path d="m207.839 367.997-7.107 4.434-78.814 49.186-15.768-15.768 77.845-77.846z" fill="#00a78e"/><path d="m146.462 214.091h332.12v70.57h-332.12z" fill="#00cb75" transform="matrix(.707 -.707 .707 .707 -84.8 294.027)"/><path d="m195.332 214.091h234.38v70.57h-234.38z" fill="#353535" transform="matrix(.707 -.707 .707 .707 -84.8 294.027)"/><path d="m342.797 219.816-59.835 59.835c-12.077 12.077-31.834 12.077-43.911 0l-3.352-3.352 103.747-103.747 3.352 3.352c12.077 12.078 12.077 31.834-.001 43.912z" fill="#00cb75"/></g></g></svg>